<?xml version="1.0" encoding="UTF-8" standalone="no"?>
<!DOCTYPE svg PUBLIC "-//W3C//DTD SVG 1.0//EN" "http://www.w3.org/TR/2001/PR-SVG-20010719/DTD/svg10.dtd">
<svg width="78cm" height="23cm" viewBox="-561 20 1553 459" xmlns="http://www.w3.org/2000/svg" xmlns:xlink="http://www.w3.org/1999/xlink">
  <g>
    <rect style="fill: #ffffff" x="437" y="21" width="117.8" height="28"/>
    <rect style="fill: none; fill-opacity:0; stroke-width: 2; stroke: #000000" x="437" y="21" width="117.8" height="28"/>
    <text font-size="16" style="fill: #000000;text-anchor:middle;font-family:sans-serif;font-style:normal;font-weight:700" x="495.9" y="40">DiMeData</text>
    <rect style="fill: #ffffff" x="437" y="49" width="117.8" height="52"/>
    <rect style="fill: none; fill-opacity:0; stroke-width: 2; stroke: #000000" x="437" y="49" width="117.8" height="52"/>
    <text font-size="12.8" style="fill: #000000;text-anchor:start;font-family:monospace;font-style:normal;font-weight:normal" x="440" y="63">+id</text>
    <text font-size="12.8" style="fill: #000000;text-anchor:start;font-family:monospace;font-style:normal;font-weight:normal" x="440" y="79">+time_created</text>
    <text font-size="12.8" style="fill: #000000;text-anchor:start;font-family:monospace;font-style:normal;font-weight:normal" x="440" y="95">+time_modified</text>
  </g>
  <g>
    <rect style="fill: #ffffff" x="120" y="381" width="302.6" height="28"/>
    <rect style="fill: none; fill-opacity:0; stroke-width: 2; stroke: #000000" x="120" y="381" width="302.6" height="28"/>
    <text font-size="16" style="fill: #000000;text-anchor:middle;font-family:sans-serif;font-style:normal;font-weight:700" x="271.3" y="400">DesktopEvent</text>
    <rect style="fill: #ffffff" x="120" y="409" width="302.6" height="20"/>
    <rect style="fill: none; fill-opacity:0; stroke-width: 2; stroke: #000000" x="120" y="409" width="302.6" height="20"/>
    <text font-size="12.8" style="fill: #000000;text-anchor:start;font-family:monospace;font-style:normal;font-weight:normal" x="123" y="423">+targettedResource: InformationElement</text>
  </g>
  <g>
    <polyline style="fill: none; fill-opacity:0; stroke-width: 2; stroke: #000000" points="151.2,347.244 151.2,362.501 271.3,362.501 271.3,379.994 "/>
    <polygon style="fill: #ffffff" points="159.2,347.244 151.2,331.244 143.2,347.244 "/>
    <polygon style="fill: none; fill-opacity:0; stroke-width: 2; stroke: #000000" points="159.2,347.244 151.2,331.244 143.2,347.244 "/>
  </g>
  <g>
    <rect style="fill: #ffffff" x="460" y="382" width="101.75" height="28"/>
    <rect style="fill: none; fill-opacity:0; stroke-width: 2; stroke: #000000" x="460" y="382" width="101.75" height="28"/>
    <text font-size="16" style="fill: #000000;text-anchor:middle;font-family:sans-serif;font-style:normal;font-weight:700" x="510.875" y="401">Document</text>
    <rect style="fill: #ffffff" x="460" y="410" width="101.75" height="20"/>
    <rect style="fill: none; fill-opacity:0; stroke-width: 2; stroke: #000000" x="460" y="410" width="101.75" height="20"/>
    <text font-size="12.8" style="fill: #000000;text-anchor:start;font-family:monospace;font-style:normal;font-weight:normal" x="463" y="424">+mimeType</text>
  </g>
  <g>
    <polyline style="fill: none; fill-opacity:0; stroke-width: 2; stroke: #000000" points="555.025,299.241 555.025,338.999 510.875,338.999 510.875,380.994 "/>
    <polygon style="fill: #ffffff" points="563.025,299.241 555.025,283.241 547.025,299.241 "/>
    <polygon style="fill: none; fill-opacity:0; stroke-width: 2; stroke: #000000" points="563.025,299.241 555.025,283.241 547.025,299.241 "/>
  </g>
  <g>
    <rect style="fill: #ffffff" x="100" y="200" width="102.4" height="28"/>
    <rect style="fill: none; fill-opacity:0; stroke-width: 2; stroke: #000000" x="100" y="200" width="102.4" height="28"/>
    <text font-size="16" style="fill: #000000;text-anchor:middle;font-family:sans-serif;font-style:normal;font-weight:700" x="151.2" y="219">Event</text>
    <rect style="fill: #ffffff" x="100" y="228" width="102.4" height="100"/>
    <rect style="fill: none; fill-opacity:0; stroke-width: 2; stroke: #000000" x="100" y="228" width="102.4" height="100"/>
    <text font-size="12.8" style="fill: #000000;text-anchor:start;font-family:monospace;font-style:normal;font-weight:normal" x="103" y="242">+actor</text>
    <text font-size="12.8" style="fill: #000000;text-anchor:start;font-family:monospace;font-style:normal;font-weight:normal" x="103" y="258">+origin</text>
    <text font-size="12.8" style="fill: #000000;text-anchor:start;font-family:monospace;font-style:normal;font-weight:normal" x="103" y="274">+type</text>
    <text font-size="12.8" style="fill: #000000;text-anchor:start;font-family:monospace;font-style:normal;font-weight:normal" x="103" y="290">+start: Date</text>
    <text font-size="12.8" style="fill: #000000;text-anchor:start;font-family:monospace;font-style:normal;font-weight:normal" x="103" y="306">+end: Date</text>
    <text font-size="12.8" style="fill: #000000;text-anchor:start;font-family:monospace;font-style:normal;font-weight:normal" x="103" y="322">+duration</text>
  </g>
  <g>
    <polyline style="fill: none; fill-opacity:0; stroke-width: 2; stroke: #000000" points="495.9,120.241 495.9,158.499 151.2,158.499 151.2,198.992 "/>
    <polygon style="fill: #ffffff" points="503.9,120.241 495.9,104.241 487.9,120.241 "/>
    <polygon style="fill: none; fill-opacity:0; stroke-width: 2; stroke: #000000" points="503.9,120.241 495.9,104.241 487.9,120.241 "/>
  </g>
  <g>
    <rect style="fill: #ffffff" x="460" y="200" width="190.05" height="28"/>
    <rect style="fill: none; fill-opacity:0; stroke-width: 2; stroke: #000000" x="460" y="200" width="190.05" height="28"/>
    <text font-size="16" style="fill: #000000;text-anchor:middle;font-family:sans-serif;font-style:normal;font-weight:700" x="555.025" y="219">InformationElement</text>
    <rect style="fill: #ffffff" x="460" y="228" width="190.05" height="52"/>
    <rect style="fill: none; fill-opacity:0; stroke-width: 2; stroke: #000000" x="460" y="228" width="190.05" height="52"/>
    <text font-size="12.8" style="fill: #000000;text-anchor:start;font-family:monospace;font-style:normal;font-weight:normal" x="463" y="242">+uri</text>
    <text font-size="12.8" style="fill: #000000;text-anchor:start;font-family:monospace;font-style:normal;font-weight:normal" x="463" y="258">+plainTextContent</text>
    <text font-size="12.8" style="fill: #000000;text-anchor:start;font-family:monospace;font-style:normal;font-weight:normal" x="463" y="274">+isStoredAs</text>
  </g>
  <g>
    <polyline style="fill: none; fill-opacity:0; stroke-width: 2; stroke: #000000" points="495.9,120.241 495.9,158.5 555.025,158.5 555.025,198.995 "/>
    <polygon style="fill: #ffffff" points="503.9,120.241 495.9,104.241 487.9,120.241 "/>
    <polygon style="fill: none; fill-opacity:0; stroke-width: 2; stroke: #000000" points="503.9,120.241 495.9,104.241 487.9,120.241 "/>
  </g>
  <g>
    <rect style="fill: #ffffff" x="880" y="200" width="110.1" height="28"/>
    <rect style="fill: none; fill-opacity:0; stroke-width: 2; stroke: #000000" x="880" y="200" width="110.1" height="28"/>
    <text font-size="16" style="fill: #000000;text-anchor:middle;font-family:sans-serif;font-style:normal;font-weight:700" x="935.05" y="219">Person</text>
    <rect style="fill: #ffffff" x="880" y="228" width="110.1" height="68"/>
    <rect style="fill: none; fill-opacity:0; stroke-width: 2; stroke: #000000" x="880" y="228" width="110.1" height="68"/>
    <text font-size="12.8" style="fill: #000000;text-anchor:start;font-family:monospace;font-style:normal;font-weight:normal" x="883" y="242">+firstName</text>
    <text font-size="12.8" style="fill: #000000;text-anchor:start;font-family:monospace;font-style:normal;font-weight:normal" x="883" y="258">+surname</text>
    <text font-size="12.8" style="fill: #000000;text-anchor:start;font-family:monospace;font-style:normal;font-weight:normal" x="883" y="274">+emailAccount</text>
    <text font-size="12.8" style="fill: #000000;text-anchor:start;font-family:monospace;font-style:normal;font-weight:normal" x="883" y="290">+dimeAccount</text>
  </g>
  <g>
    <polyline style="fill: none; fill-opacity:0; stroke-width: 2; stroke: #000000" points="495.9,120.241 495.9,158.5 935.05,158.5 935.05,198.994 "/>
    <polygon style="fill: #ffffff" points="503.9,120.241 495.9,104.241 487.9,120.241 "/>
    <polygon style="fill: none; fill-opacity:0; stroke-width: 2; stroke: #000000" points="503.9,120.241 495.9,104.241 487.9,120.241 "/>
  </g>
  <g>
    <rect style="fill: #ffffff" x="780" y="382" width="102.4" height="28"/>
    <rect style="fill: none; fill-opacity:0; stroke-width: 2; stroke: #000000" x="780" y="382" width="102.4" height="28"/>
    <text font-size="16" style="fill: #000000;text-anchor:middle;font-family:sans-serif;font-style:normal;font-weight:700" x="831.2" y="401">Message</text>
    <rect style="fill: #ffffff" x="780" y="410" width="102.4" height="52"/>
    <rect style="fill: none; fill-opacity:0; stroke-width: 2; stroke: #000000" x="780" y="410" width="102.4" height="52"/>
    <text font-size="12.8" style="fill: #000000;text-anchor:start;font-family:monospace;font-style:normal;font-weight:normal" x="783" y="424">+date</text>
    <text font-size="12.8" style="fill: #000000;text-anchor:start;font-family:monospace;font-style:normal;font-weight:normal" x="783" y="440">+subject</text>
    <text font-size="12.8" style="fill: #000000;text-anchor:start;font-family:monospace;font-style:normal;font-weight:normal" x="783" y="456">+attachments</text>
  </g>
  <g>
    <rect style="fill: #ffffff" x="620" y="382" width="86.9" height="28"/>
    <rect style="fill: none; fill-opacity:0; stroke-width: 2; stroke: #000000" x="620" y="382" width="86.9" height="28"/>
    <text font-size="16" style="fill: #000000;text-anchor:middle;font-family:sans-serif;font-style:normal;font-weight:700" x="663.45" y="401">LivePost</text>
    <rect style="fill: #ffffff" x="620" y="410" width="86.9" height="20"/>
    <rect style="fill: none; fill-opacity:0; stroke-width: 2; stroke: #000000" x="620" y="410" width="86.9" height="20"/>
    <text font-size="12.8" style="fill: #000000;text-anchor:start;font-family:monospace;font-style:normal;font-weight:normal" x="623" y="424">+location</text>
  </g>
  <g>
    <polyline style="fill: none; fill-opacity:0; stroke-width: 2; stroke: #000000" points="555.025,299.241 555.025,338.999 663.45,338.999 663.45,380.994 "/>
    <polygon style="fill: #ffffff" points="563.025,299.241 555.025,283.241 547.025,299.241 "/>
    <polygon style="fill: none; fill-opacity:0; stroke-width: 2; stroke: #000000" points="563.025,299.241 555.025,283.241 547.025,299.241 "/>
  </g>
  <g>
    <rect style="fill: #ffffff" x="-560" y="382" width="140.9" height="28"/>
    <rect style="fill: none; fill-opacity:0; stroke-width: 2; stroke: #000000" x="-560" y="382" width="140.9" height="28"/>
    <text font-size="16" style="fill: #000000;text-anchor:middle;font-family:sans-serif;font-style:normal;font-weight:700" x="-489.55" y="401">PhysicalEvent</text>
    <rect style="fill: #ffffff" x="-560" y="410" width="140.9" height="36"/>
    <rect style="fill: none; fill-opacity:0; stroke-width: 2; stroke: #000000" x="-560" y="410" width="140.9" height="36"/>
    <text font-size="12.8" style="fill: #000000;text-anchor:start;font-family:monospace;font-style:normal;font-weight:normal" x="-557" y="424">+sampleRate</text>
    <text font-size="12.8" style="fill: #000000;text-anchor:start;font-family:monospace;font-style:normal;font-weight:normal" x="-557" y="440">+data: double[][]</text>
  </g>
  <g>
    <rect style="fill: #ffffff" x="-260" y="381" width="148.6" height="28"/>
    <rect style="fill: none; fill-opacity:0; stroke-width: 2; stroke: #000000" x="-260" y="381" width="148.6" height="28"/>
    <text font-size="16" style="fill: #000000;text-anchor:middle;font-family:sans-serif;font-style:normal;font-weight:700" x="-185.7" y="400">LivePostEvent</text>
    <rect style="fill: #ffffff" x="-260" y="409" width="148.6" height="52"/>
    <rect style="fill: none; fill-opacity:0; stroke-width: 2; stroke: #000000" x="-260" y="409" width="148.6" height="52"/>
    <text font-size="12.8" style="fill: #000000;text-anchor:start;font-family:monospace;font-style:normal;font-weight:normal" x="-257" y="423">+from: Person</text>
    <text font-size="12.8" style="fill: #000000;text-anchor:start;font-family:monospace;font-style:normal;font-weight:normal" x="-257" y="439">+to: Person[]</text>
    <text font-size="12.8" style="fill: #000000;text-anchor:start;font-family:monospace;font-style:normal;font-weight:normal" x="-257" y="455">+subject: LivePost</text>
  </g>
  <g>
    <rect style="fill: #ffffff" x="-60" y="381" width="140.9" height="28"/>
    <rect style="fill: none; fill-opacity:0; stroke-width: 2; stroke: #000000" x="-60" y="381" width="140.9" height="28"/>
    <text font-size="16" style="fill: #000000;text-anchor:middle;font-family:sans-serif;font-style:normal;font-weight:700" x="10.45" y="400">MessageEvent</text>
    <rect style="fill: #ffffff" x="-60" y="409" width="140.9" height="68"/>
    <rect style="fill: none; fill-opacity:0; stroke-width: 2; stroke: #000000" x="-60" y="409" width="140.9" height="68"/>
    <text font-size="12.8" style="fill: #000000;text-anchor:start;font-family:monospace;font-style:normal;font-weight:normal" x="-57" y="423">+from: Person</text>
    <text font-size="12.8" style="fill: #000000;text-anchor:start;font-family:monospace;font-style:normal;font-weight:normal" x="-57" y="439">+to: Person[]</text>
    <text font-size="12.8" style="fill: #000000;text-anchor:start;font-family:monospace;font-style:normal;font-weight:normal" x="-57" y="455">+cc: Person[]</text>
    <text font-size="12.8" style="fill: #000000;text-anchor:start;font-family:monospace;font-style:normal;font-weight:normal" x="-57" y="471">+subject: Message</text>
  </g>
  <g>
    <polyline style="fill: none; fill-opacity:0; stroke-width: 2; stroke: #000000" points="555.025,299.241 555.025,339 831.2,339 831.2,380.995 "/>
    <polygon style="fill: #ffffff" points="563.025,299.241 555.025,283.241 547.025,299.241 "/>
    <polygon style="fill: none; fill-opacity:0; stroke-width: 2; stroke: #000000" points="563.025,299.241 555.025,283.241 547.025,299.241 "/>
  </g>
  <g>
    <polyline style="fill: none; fill-opacity:0; stroke-width: 2; stroke: #000000" points="151.2,347.244 151.2,362.501 10.45,362.501 10.45,379.994 "/>
    <polygon style="fill: #ffffff" points="159.2,347.244 151.2,331.244 143.2,347.244 "/>
    <polygon style="fill: none; fill-opacity:0; stroke-width: 2; stroke: #000000" points="159.2,347.244 151.2,331.244 143.2,347.244 "/>
  </g>
  <g>
    <polyline style="fill: none; fill-opacity:0; stroke-width: 2; stroke: #000000" points="151.2,347.244 151.2,362.501 -185.7,362.501 -185.7,379.995 "/>
    <polygon style="fill: #ffffff" points="159.2,347.244 151.2,331.244 143.2,347.244 "/>
    <polygon style="fill: none; fill-opacity:0; stroke-width: 2; stroke: #000000" points="159.2,347.244 151.2,331.244 143.2,347.244 "/>
  </g>
  <g>
    <polyline style="fill: none; fill-opacity:0; stroke-width: 2; stroke: #000000" points="151.2,347.244 151.2,363 -489.55,363 -489.55,380.992 "/>
    <polygon style="fill: #ffffff" points="159.2,347.244 151.2,331.244 143.2,347.244 "/>
    <polygon style="fill: none; fill-opacity:0; stroke-width: 2; stroke: #000000" points="159.2,347.244 151.2,331.244 143.2,347.244 "/>
  </g>
  <g>
    <rect style="fill: #ffffff" x="-400" y="381" width="123.25" height="28"/>
    <rect style="fill: none; fill-opacity:0; stroke-width: 2; stroke: #000000" x="-400" y="381" width="123.25" height="28"/>
    <text font-size="16" style="fill: #000000;text-anchor:middle;font-family:sans-serif;font-style:normal;font-weight:700" x="-338.375" y="400">SearchEvent</text>
    <rect style="fill: #ffffff" x="-400" y="409" width="123.25" height="20"/>
    <rect style="fill: none; fill-opacity:0; stroke-width: 2; stroke: #000000" x="-400" y="409" width="123.25" height="20"/>
    <text font-size="12.8" style="fill: #000000;text-anchor:start;font-family:monospace;font-style:normal;font-weight:normal" x="-397" y="423">+query</text>
  </g>
  <g>
    <polyline style="fill: none; fill-opacity:0; stroke-width: 2; stroke: #000000" points="151.2,347.244 151.2,362.501 -338.375,362.501 -338.375,379.994 "/>
    <polygon style="fill: #ffffff" points="159.2,347.244 151.2,331.244 143.2,347.244 "/>
    <polygon style="fill: none; fill-opacity:0; stroke-width: 2; stroke: #000000" points="159.2,347.244 151.2,331.244 143.2,347.244 "/>
  </g>
</svg>
